<!DOCTYPE svg PUBLIC "-//W3C//DTD SVG 1.1//EN" "http://www.w3.org/Graphics/SVG/1.1/DTD/svg11.dtd">
<!-- Uploaded to: SVG Repo, www.svgrepo.com, Transformed by: SVG Repo Mixer Tools -->
<svg width="800px" height="800px" viewBox="-7.6 -7.6 91.20 91.20" xmlns="http://www.w3.org/2000/svg" xmlns:xlink="http://www.w3.org/1999/xlink" version="1.1" baseProfile="full" enable-background="new 0 0 76.00 76.00" xml:space="preserve" fill="#21cde4" stroke="#21cde4">
<g id="SVGRepo_bgCarrier" stroke-width="0">
<path transform="translate(-7.6, -7.6), scale(2.85)" d="M16,27.841969051398337C19.37132083620179,27.57221191074094,21.89331855263178,25.02138885774135,23.882923519212717,22.286421733167373C25.736346023222886,19.738654864086648,26.99061116857076,16.722812649060796,26.329838341101166,13.642281807138488C25.659088940441098,10.515240061419416,23.230191274939095,8.311703281811289,20.520844591808654,6.612369474531006C17.219773797058032,4.541899410041571,13.50789326453119,1.8601048507217552,9.902812572299691,3.3390598474684587C6.177005109676779,4.867542018654342,4.892738359851954,9.3397064219325,4.201779305789833,13.307133117131702C3.5637717173880508,16.970517109401268,4.015255063173228,20.80151969046033,6.3587738822540185,23.68862126510043C8.678993659992704,26.547019550311525,12.330172373543437,28.135611292916277,16,27.841969051398337" fill="#393b3c" strokewidth="0"/>
</g>
<g id="SVGRepo_tracerCarrier" stroke-linecap="round" stroke-linejoin="round"/>
<g id="SVGRepo_iconCarrier"> <path fill="#21cde4" fill-opacity="1" stroke-linejoin="round" d="M 53.5714,57L 22.6286,57L 22.6286,51.987L 42.3496,26.0571L 24.2572,26.0571L 24.2572,19L 53.5714,19L 53.5714,23.8602L 34.2746,49.9428L 53.5714,49.9428L 53.5714,57 Z "/> </g>
</svg>