<!DOCTYPE svg PUBLIC "-//W3C//DTD SVG 1.1//EN" "http://www.w3.org/Graphics/SVG/1.1/DTD/svg11.dtd">
<!-- Uploaded to: SVG Repo, www.svgrepo.com, Transformed by: SVG Repo Mixer Tools -->
<svg width="800px" height="800px" viewBox="-7.6 -7.6 91.20 91.20" xmlns="http://www.w3.org/2000/svg" xmlns:xlink="http://www.w3.org/1999/xlink" version="1.1" baseProfile="full" enable-background="new 0 0 76.00 76.00" xml:space="preserve" fill="#21cde4">
<g id="SVGRepo_bgCarrier" stroke-width="0">
<path transform="translate(-7.6, -7.6), scale(2.85)" d="M16,25.800036153859562C19.242069222711237,25.97318316475162,22.908077240868742,29.282542268443848,25.350370934768552,27.143338153598904C27.806832187042147,24.99172467977875,24.821264745354778,20.870435232424725,25.313617580924515,17.6422420675177C25.784218201527853,14.556670913906391,28.864934126646997,12.034604418925664,28.116870931234082,9.004321306116054C27.277075558849166,5.602445968900735,24.60157457124956,2.6123744672196785,21.30803784420568,1.4162858814343142C18.01561247369586,0.22060089851580655,14.200868400150958,1.0279036940137587,11.220400856795761,2.8681592800016897C8.592660806161962,4.490627311060787,8.13583218305896,7.894347619312247,6.536966357703744,10.536514979269764C4.882156754127239,13.271130887732689,1.5672828933389045,15.321109131425374,1.7537823683371236,18.511992541506807C1.9454837204667077,21.79187664952539,4.52677140661873,24.69109683396168,7.451725189431029,26.18743721597815C10.07002757538065,27.52690165998024,13.063152771645607,25.643189928777748,16,25.800036153859562" fill="#393b3c" strokewidth="0"/>
</g>
<g id="SVGRepo_tracerCarrier" stroke-linecap="round" stroke-linejoin="round"/>
<g id="SVGRepo_iconCarrier"> <path fill="#21cde4" fill-opacity="1" stroke-width="0.2" stroke-linejoin="round" d="M 54.6572,19L 42.1714,43.4879L 42.1714,57L 33.4857,57L 33.4857,43.6406L 21.5429,19L 31.3228,19L 37.4045,33.1736C 37.5063,33.4394 37.7947,34.4742 38.2697,36.2781L 38.3799,36.2781C 38.6118,35.0058 38.8917,34.0077 39.2197,33.2839L 45.5897,19L 54.6572,19 Z "/> </g>
</svg>