<!DOCTYPE svg PUBLIC "-//W3C//DTD SVG 1.1//EN" "http://www.w3.org/Graphics/SVG/1.1/DTD/svg11.dtd">
<!-- Uploaded to: SVG Repo, www.svgrepo.com, Transformed by: SVG Repo Mixer Tools -->
<svg width="800px" height="800px" viewBox="-7.6 -7.6 91.20 91.20" xmlns="http://www.w3.org/2000/svg" xmlns:xlink="http://www.w3.org/1999/xlink" version="1.1" baseProfile="full" enable-background="new 0 0 76.00 76.00" xml:space="preserve" fill="#21cde4" stroke="#21cde4">
<g id="SVGRepo_bgCarrier" stroke-width="0">
<path transform="translate(-7.6, -7.6), scale(2.85)" d="M16,29.852047365158796C18.025474674041078,29.518890286514104,19.86745962946446,28.722469142186245,21.816134588160722,28.077327917660178C24.01185664585715,27.350397646041714,26.556348120497866,27.33705823738895,28.274307781338425,25.788433822569615C30.02765486297048,24.207910041854593,31.341552443834267,21.859975601409943,31.33199118758409,19.499426937973354C31.32239887287991,17.131210349928594,29.537830540784018,15.180049376039388,28.223360010013813,13.21009784259283C27.20070482614269,11.677479879317868,25.74736939595768,10.575221063427412,24.4829793463815,9.235049712821706C23.315856834133097,7.99797563580997,22.560643058424983,6.296258512663389,21.020273752887462,5.575294135478686C19.482469648043068,4.855530391358679,17.68510877513225,5.472731282689747,16,5.264621388167143C14.075553946587283,5.026953487376151,12.267730360510757,4.007153801182841,10.344812039011966,4.2568811973700615C8.191745831009438,4.5364976594588295,6.085452862902334,5.370983744530571,4.423500055567477,6.768049357916432C2.643063027325379,8.264714809533421,0.8022736210258972,10.163368552754715,0.5658368567572811,12.477252979881882C0.3270526714410407,14.814110403712043,2.5230402780862775,16.67086918643679,3.1811990125573217,18.9258076748898C3.7953085190370306,21.029827707988524,3.2808982673280376,23.386191310169213,4.314075899184489,25.319213494899902C5.406067117366327,27.362272873260366,7.023405817450607,29.317479298893552,9.18319705638901,30.155237168625497C11.33069175539547,30.98822535371722,13.727151140729745,30.22589340523031,16,29.852047365158796" fill="#393b3c" strokewidth="0"/>
</g>
<g id="SVGRepo_tracerCarrier" stroke-linecap="round" stroke-linejoin="round"/>
<g id="SVGRepo_iconCarrier"> <path fill="#21cde4" fill-opacity="1" stroke-width="0.2" stroke-linejoin="round" d="M 56.0143,57L 45.683,57L 39.0246,44.6245C 38.7758,44.1665 38.5156,43.3183 38.2442,42.0799L 38.1339,42.0799C 38.0095,42.6623 37.7127,43.5473 37.2433,44.7348L 30.5594,57L 20.1857,57L 32.5018,38L 21.2714,19L 31.8487,19L 37.3621,30.3915C 37.7918,31.2963 38.1763,32.365 38.5156,33.5977L 38.6259,33.5977C 38.8408,32.857 39.2394,31.7543 39.8219,30.2897L 45.8951,19L 55.4714,19L 44.0969,37.8388L 56.0143,57 Z "/> </g>
</svg>